<svg xmlns="http://www.w3.org/2000/svg" viewBox="0 0 966 940.44">
  <defs>
    <style>.cls-1{fill:#273c8b;}</style>
  </defs>
  <title>free_combo</title>
  <g id="Layer_2" data-name="Layer 2">
    <g id="Layer_1-2" data-name="Layer 1">
      <path class="cls-1"
            d="M956.51,579.09A73.84,73.84,0,0,0,855.86,551L640.48,672.26a11.7,11.7,0,0,0-5.61,7.4c-3.75,15.33-12.6,36.74-33.37,51.65-23,16.5-54.1,19.94-92,10.22-.23-.06-.45-.12-.65-.19L384.59,702.77a14.27,14.27,0,0,1,4.23-27.9,14.58,14.58,0,0,1,4.24.64l123.6,38.38.6.17c29.15,7.36,51.91,5.31,67.6-5.93,19.81-14.22,23.3-39.21,23.71-42.88,0-.12,0-.23,0-.35a.45.45,0,0,1,0-.1v-.19a65.34,65.34,0,0,0-47.32-67.68l-.54-.17c-.91-.3-92.35-30.16-150.6-46.78-6.48-1.85-24.31-6.14-50.1-6.14a226.16,226.16,0,0,0-141.51,49.35L4.33,766.48a11.66,11.66,0,0,0-2,16.12l116,153.21a11.66,11.66,0,0,0,16.43,2.2l149.4-115a14.44,14.44,0,0,1,12-2.59l241.31,57a74.5,74.5,0,0,0,53.24-7.52L928.38,679.73A74,74,0,0,0,956.51,579.09Z"/>
      <path class="cls-1"
            d="M445.23,218.44c-.59-15.2,36.19-29.88,36.19-56.85S416.7,86.25,416.7,86.25H320.4s-64.71,48.37-64.71,75.34,36.78,41.65,36.18,56.85-129.91,270.07,0,308.74H445.23C575.15,488.51,445.82,233.64,445.23,218.44Zm1.82,198.62c-22.21,63-25.21,63-25.21,63h-102s-43.83-14.41-33.63-99,30.61-132,69-115.83S469.25,354,447.05,417.06Z"/>
      <polygon class="cls-1"
               points="414.82 73.39 414.82 46.53 383.92 46.53 383.92 32.62 414.82 32.62 389.2 0 345.45 0 319.83 32.62 350.73 32.62 350.73 46.53 319.83 46.53 319.83 73.39 414.82 73.39"/>
      <path class="cls-1"
            d="M913.28,148.78a17.47,17.47,0,0,1-5.36-11.33c-.58-17.24-.5-34.53-.16-51.79.19-9.93-4.28-14-13.9-13.65-8.81.26-17.65,0-26.47.06-13.68.09-15.5,1.79-15.58,15.14-.1,16.5.23,33-.23,49.49-.1,3.68-1.67,8.52-4.32,10.73-15,12.5-21.1,28.17-20.93,47.53.44,51,.15,102.06.15,153.1q0,81.15,0,162.3c0,13.56,1.8,15.27,15.4,15.31q37.41.11,74.82,0c14.13,0,16.24-2,16.24-15.76q0-158.85,0-317.7C933,174.68,926.47,160.43,913.28,148.78ZM871.59,91.39h16.3v44.83h-16.3Zm10.06,273.08A29.45,29.45,0,1,1,911.09,335,29.45,29.45,0,0,1,881.65,364.47Z"/>
      <rect class="cls-1" x="699.1" y="298.63" width="75.93" height="19.1"/>
      <path class="cls-1"
            d="M773.2,328.61H700.92L648,526H826.18Zm.42,109.24a136.8,136.8,0,0,1-17.22-1.69,21.32,21.32,0,0,1-.75,2.3,136.62,136.62,0,0,1,14.83,8.9l-.13.27a137.71,137.71,0,0,1-16.1-6.35,19.76,19.76,0,0,1-1.37,2,136.19,136.19,0,0,1,11.84,12.62l-.2.22a134.83,134.83,0,0,1-13.72-10.54,21.17,21.17,0,0,1-1.87,1.56,137,137,0,0,1,7.9,15.4l-.26.16a138.23,138.23,0,0,1-10.31-13.89,19,19,0,0,1-2.21,1,137.81,137.81,0,0,1,3.37,17l-.29.08a138,138,0,0,1-6.1-16.17,20.7,20.7,0,0,1-2.4.31,135.54,135.54,0,0,1-1.42,17.25h-.3A139.3,139.3,0,0,1,735.49,451a19.93,19.93,0,0,1-4.25-.78,89.64,89.64,0,0,1-7.11,15.71l-.28-.11a89.27,89.27,0,0,1,5-16.52,19.74,19.74,0,0,1-2.64-1.43A90,90,0,0,1,715.06,461l-.25-.18a90,90,0,0,1,9.34-14.51,21.21,21.21,0,0,1-2.13-2.11,90.21,90.21,0,0,1-14.35,9.6l-.18-.24a90,90,0,0,1,13-11.38,20.88,20.88,0,0,1-1.46-2.62,90.24,90.24,0,0,1-16.43,5.29l-.12-.28A90.24,90.24,0,0,1,718,437.21a20.2,20.2,0,0,1-.69-2.91,91,91,0,0,1-17.25.57l0-.3a89.44,89.44,0,0,1,17-2.82c0-.23,0-.46,0-.69a19.62,19.62,0,0,1,.14-2.31,90.16,90.16,0,0,1-16.74-4.19l.06-.29a89.33,89.33,0,0,1,17.15,2,19.35,19.35,0,0,1,.92-2.85,90.16,90.16,0,0,1-14.94-8.62l.14-.27a90.19,90.19,0,0,1,15.94,6.59,21.23,21.23,0,0,1,1.69-2.48,90.18,90.18,0,0,1-12-12.39l.2-.23a90.23,90.23,0,0,1,13.52,10.72,21,21,0,0,1,2.3-1.91,90.71,90.71,0,0,1-8.14-15.23l.26-.16a90.22,90.22,0,0,1,10.05,14,20.42,20.42,0,0,1,2.75-1.2,90.53,90.53,0,0,1-3.65-16.87l.3-.09a90.43,90.43,0,0,1,5.81,16.24,20.8,20.8,0,0,1,3-.4,90.8,90.8,0,0,1,1.13-17.23h.3a89.19,89.19,0,0,1,1.13,17.23,20.51,20.51,0,0,1,4.26.73A138.35,138.35,0,0,1,750,396.19l.28.11a135.89,135.89,0,0,1-4.73,16.64,19.69,19.69,0,0,1,2.12,1.16,137.59,137.59,0,0,1,11.41-13l.24.18a137.15,137.15,0,0,1-9.12,14.7,19.94,19.94,0,0,1,1.73,1.71,138.68,138.68,0,0,1,14.53-9.4l.19.24a136.47,136.47,0,0,1-12.82,11.62,18.36,18.36,0,0,1,1.2,2.12,137.07,137.07,0,0,1,16.56-5l.11.28a135,135,0,0,1-15.49,7.66,20.74,20.74,0,0,1,.55,2.36,138.49,138.49,0,0,1,17.3-.29l0,.31a138.56,138.56,0,0,1-17,3.11c0,.13,0,.26,0,.4,0,.68,0,1.35-.1,2a134.84,134.84,0,0,1,16.69,4.47Z"/>
      <path class="cls-1"
            d="M628.16,146.32V108.86h39.22V90.57h-114a35,35,0,0,0-35,35v20.71h23.29v30.75H523.56a35.15,35.15,0,0,0-35,35v281a35.15,35.15,0,0,0,35,35H624.89a35.15,35.15,0,0,0,35-35V212.11a35.15,35.15,0,0,0-35-35H606.81V146.32Zm-15.72,183.5a14,14,0,0,1-3.62,9.32h3a14.07,14.07,0,0,1,14,14v9.45a14.08,14.08,0,0,1-14,14H533.05a14.08,14.08,0,0,1-14-14v-9.45a14.08,14.08,0,0,1,14-14h3.05a13.92,13.92,0,0,1-3.63-9.32,14.08,14.08,0,0,1,14-14H551a9.42,9.42,0,0,1-.71-3.56c0-5.28,11.25-10.87,22.22-9.6s9-11.4,13-18.12c9.24,13.5,9.24,22.44,9.24,27.72a9.61,9.61,0,0,1-.7,3.56h4.43A14.08,14.08,0,0,1,612.44,329.82Z"/>
    </g>
  </g>
</svg>