<svg xmlns="http://www.w3.org/2000/svg" viewBox="0 0 903 964.82">
  <defs>
    <style>.cls-1,.cls-2{fill:#273c8b;}.cls-2{stroke:#fff;stroke-miterlimit:10;stroke-width:2px;}</style>
  </defs>
  <title>combo_discount</title>
  <g id="Layer_2" data-name="Layer 2">
    <g id="Layer_1-2" data-name="Layer 1">
      <path class="cls-1"
            d="M272.88,564.79c-.77-19.64,46.74-38.6,46.74-73.44S236,394,236,394H111.61S28,456.51,28,491.35s47.52,53.8,46.75,73.44-167.83,348.88,0,398.84H272.88C440.71,913.67,273.64,584.43,272.88,564.79Zm2.34,256.58c-28.68,81.41-32.56,81.41-32.56,81.41H110.88s-56.62-18.6-43.44-127.93S107,604.28,156.6,625.22,303.91,740,275.22,821.37Z"/>
      <polygon class="cls-1"
               points="233.59 377.41 233.59 342.71 193.67 342.71 193.67 324.74 233.59 324.74 200.49 282.6 143.98 282.6 110.88 324.74 150.8 324.74 150.8 342.71 110.88 342.71 110.88 377.41 233.59 377.41"/>
      <path class="cls-1"
            d="M877.52,474.8a22.69,22.69,0,0,1-6.93-14.63c-.74-22.28-.63-44.61-.2-66.91.25-12.83-5.53-18-17.95-17.64-11.39.35-22.8,0-34.2.08-17.67.12-20,2.31-20.13,19.56-.13,21.31.3,42.64-.29,63.93-.13,4.76-2.16,11-5.58,13.86-19.34,16.16-27.27,36.39-27,61.4.58,65.93.2,131.86.2,197.78q0,104.84,0,209.68c0,17.51,2.32,19.72,19.89,19.77q48.33.14,96.66,0c18.25,0,21-2.63,21-20.35q.06-205.22,0-410.43C903,508.26,894.56,489.85,877.52,474.8Zm-53.86-74.15h21.07v57.93H823.66Zm13,352.78a38,38,0,1,1,38-38A38,38,0,0,1,836.66,753.43Z"/>
      <rect class="cls-1" x="600.83" y="668.38" width="98.09" height="24.68"/>
      <path class="cls-1"
            d="M696.57,707.11H603.19L534.76,962.05H765Zm.53,141.12a177.19,177.19,0,0,1-22.25-2.18,24.51,24.51,0,0,1-1,3,176.24,176.24,0,0,1,19.16,11.49l-.17.35a176.54,176.54,0,0,1-20.8-8.2,27,27,0,0,1-1.77,2.6,177.7,177.7,0,0,1,15.3,16.3l-.27.29a177.51,177.51,0,0,1-17.72-13.62,26.15,26.15,0,0,1-2.42,2,177.49,177.49,0,0,1,10.22,19.89l-.34.2a176,176,0,0,1-13.32-17.94,23.61,23.61,0,0,1-2.86,1.26,176.85,176.85,0,0,1,4.36,21.93l-.38.1A177.38,177.38,0,0,1,655,864.8a26.26,26.26,0,0,1-3.1.41,176.14,176.14,0,0,1-1.84,22.28h-.39a178,178,0,0,1-1.83-22.28,25.37,25.37,0,0,1-5.49-1,117,117,0,0,1-9.18,20.3l-.37-.14A116.77,116.77,0,0,1,639.26,863a26.61,26.61,0,0,1-3.4-1.86,116.37,116.37,0,0,1-14.41,17l-.32-.23A117,117,0,0,1,633.2,859.2a26.34,26.34,0,0,1-2.76-2.73,116,116,0,0,1-18.53,12.4l-.24-.31a116.51,116.51,0,0,1,16.74-14.7,24.19,24.19,0,0,1-1.89-3.38,116.58,116.58,0,0,1-21.23,6.83l-.15-.36a116.47,116.47,0,0,1,20.14-9.54,26.19,26.19,0,0,1-.89-3.77,116.73,116.73,0,0,1-22.29.74l0-.39a115.85,115.85,0,0,1,22-3.64c0-.3-.05-.59-.05-.89a24.32,24.32,0,0,1,.19-3,117.06,117.06,0,0,1-21.63-5.41l.07-.39a116.3,116.3,0,0,1,22.16,2.54,26,26,0,0,1,1.19-3.69,116,116,0,0,1-19.29-11.13l.17-.35a116.63,116.63,0,0,1,20.6,8.52,25.77,25.77,0,0,1,2.18-3.2,116.41,116.41,0,0,1-15.51-16l.26-.29a117,117,0,0,1,17.47,13.85,24.42,24.42,0,0,1,3-2.47,115.91,115.91,0,0,1-10.52-19.67l.33-.2a114.91,114.91,0,0,1,13,18.1,26.24,26.24,0,0,1,3.56-1.55,116,116,0,0,1-4.71-21.8l.37-.1a114.94,114.94,0,0,1,7.51,21,25.71,25.71,0,0,1,3.84-.52,117.33,117.33,0,0,1,1.46-22.26h.39a115.71,115.71,0,0,1,1.46,22.26,26.34,26.34,0,0,1,5.51.94,176.08,176.08,0,0,1,9.54-20.2l.37.14a176.19,176.19,0,0,1-6.12,21.5,25,25,0,0,1,2.74,1.49,177.3,177.3,0,0,1,14.74-16.81l.31.23a177.21,177.21,0,0,1-11.78,19,27.47,27.47,0,0,1,2.24,2.21A174.93,174.93,0,0,1,687.85,810l.24.31a176.23,176.23,0,0,1-16.56,15,24.47,24.47,0,0,1,1.55,2.74,176.66,176.66,0,0,1,21.39-6.49l.14.36a176.1,176.1,0,0,1-20,9.89,25.52,25.52,0,0,1,.71,3,177.1,177.1,0,0,1,22.35-.37l0,.39a177.22,177.22,0,0,1-22,4c0,.17,0,.34,0,.52a24.72,24.72,0,0,1-.14,2.6,177.91,177.91,0,0,1,21.57,5.78Z"/>
      <path class="cls-1"
            d="M509.2,471.62V423.23h50.66V399.6H412.61a45.27,45.27,0,0,0-45.27,45.27v26.75h30.08v39.72H374.07a45.41,45.41,0,0,0-45.27,45.28V919.55a45.4,45.4,0,0,0,45.27,45.27H505a45.41,45.41,0,0,0,45.28-45.27V556.62A45.42,45.42,0,0,0,505,511.34H481.62V471.62ZM488.89,708.68a18,18,0,0,1-4.69,12h3.94a18.19,18.19,0,0,1,18.14,18.14v12.21a18.19,18.19,0,0,1-18.14,18.13H386.33a18.19,18.19,0,0,1-18.14-18.13V738.85a18.19,18.19,0,0,1,18.14-18.14h3.93a18,18,0,0,1-4.68-12,18.19,18.19,0,0,1,18.14-18.14h5.72a12.31,12.31,0,0,1-.9-4.59c0-6.82,14.53-14,28.69-12.4s11.64-14.73,16.76-23.41c11.94,17.44,11.94,29,11.94,35.81a12.12,12.12,0,0,1-.91,4.59h5.73A18.19,18.19,0,0,1,488.89,708.68Z"/>
      <path class="cls-2"
            d="M710.05,240c-5.75,0-10.52,1.94-13.82,5.63a18.86,18.86,0,0,0-4.57,12.65c0,8.91,5.82,18.51,18.6,18.51,5.75,0,10.53-1.95,13.82-5.63a18.9,18.9,0,0,0,4.58-12.65C728.66,249.61,722.83,240,710.05,240Z"/>
      <path class="cls-2"
            d="M636.71,195.31c5.76,0,10.56-1.94,13.86-5.62a18.75,18.75,0,0,0,4.58-12.6c0-8.89-5.83-18.45-18.65-18.45-13.06,0-18.91,9.15-18.91,18.22C617.59,185.75,623.57,195.31,636.71,195.31Z"/>
      <path class="cls-2"
            d="M673,71.77c-80.35,0-145.71,65.36-145.71,145.7S592.67,363.17,673,363.17s145.7-65.36,145.7-145.7S753.36,71.77,673,71.77ZM610,153.43c6.49-7.08,15.67-10.82,26.55-10.82,23.39,0,35.62,17.34,35.62,34.47a34.67,34.67,0,0,1-9,23.66c-6.51,7.07-15.73,10.81-26.66,10.81-23.28,0-35.46-17.34-35.46-34.47A34.75,34.75,0,0,1,610,153.43Zm21.87,123.3a9.87,9.87,0,0,1-6.43,2.87h-15c-2.12,0-2.7-1.29-1.28-2.87l106-117.88a10.17,10.17,0,0,1,6.43-2.94l14.88-.27c2.12,0,2.7,1.22,1.29,2.8Zm104.39,5c-6.39,6.93-15.44,10.6-26.16,10.6-22.83,0-34.78-17-34.78-33.81A34.13,34.13,0,0,1,684,235.31c6.36-6.93,15.37-10.6,26-10.6,22.94,0,34.94,17,34.94,33.81A34.07,34.07,0,0,1,736.21,281.73Z"/>
      <path class="cls-2"
            d="M861.34,278.66c6.71-20.64,38-38.31,38-61.19s-31.28-40.55-38-61.2c-7-21.4,7.74-54-5.23-71.84-13.09-18-48.75-14-66.74-27.14-17.81-13-25-48.16-46.41-55.11-20.64-6.7-47.06,17.33-70,17.33s-49.3-24-70-17.33c-21.4,7-28.59,42.15-46.4,55.11-18,13.1-53.65,9.15-66.74,27.14-13,17.82,1.72,50.44-5.23,71.85-6.71,20.64-38,38.31-38,61.19s31.28,40.55,38,61.2c6.95,21.4-7.74,54,5.23,71.84,13.09,18,48.75,14,66.74,27.14,17.81,13,25,48.16,46.41,55.11,20.64,6.7,47.06-17.33,69.94-17.33s49.31,24,70,17.33c21.4-6.95,28.59-42.15,46.4-55.12,18-13.09,53.65-9.14,66.74-27.13C869.08,332.69,854.39,300.07,861.34,278.66ZM673,385c-92.39,0-167.55-75.16-167.55-167.55S580.63,49.93,673,49.93s167.54,75.16,167.54,167.54S765.4,385,673,385Z"/>
    </g>
  </g>
</svg>