<?xml version="1.0" encoding="utf-8"?>
<!-- Generator: Adobe Illustrator 23.0.1, SVG Export Plug-In . SVG Version: 6.00 Build 0)  -->
<svg version="1.1" id="Capa_1" xmlns="http://www.w3.org/2000/svg" xmlns:xlink="http://www.w3.org/1999/xlink" x="0px" y="0px"
	 viewBox="0 0 50 50" style="enable-background:new 0 0 50 50;" xml:space="preserve">
<style type="text/css">
	.st0{fill:#E5007D;}
	.st1{fill:#E5007D;stroke:#FFFFFF;stroke-linecap:round;stroke-linejoin:round;stroke-miterlimit:10;}
	.st2{fill:#E5007D;stroke:#FFFFFF;stroke-miterlimit:10;}
	.st3{enable-background:new    ;}
	.st4{fill:#FFFFFF;}
</style>
<title>consumer-promotion</title>
<polygon class="st0" points="0,0 50,0 0,50 "/>
<rect x="2.7" y="6.2" transform="matrix(0.9593 -0.2824 0.2824 0.9593 -2.8574 5.0152)" class="st1" width="26.5" height="12.4"/>
<rect x="2.7" y="6.2" transform="matrix(0.998 -6.341628e-02 6.341628e-02 0.998 -0.7553 1.0371)" class="st1" width="26.5" height="12.4"/>
<circle class="st2" cx="16" cy="12.4" r="4.4"/>
<g class="st3">
	<path class="st4" d="M15.6,14.5l-0.1-1.9c-0.6-0.1-1-0.4-1.3-0.7c-0.3-0.3-0.5-0.7-0.5-1.2c0-0.5,0.1-0.9,0.4-1.3
		c0.3-0.3,0.7-0.6,1.2-0.6l0-0.4l0.6,0l0,0.4c0.5,0,0.9,0.2,1.2,0.4c0.3,0.2,0.5,0.6,0.6,1l-1.1,0.2c-0.1-0.3-0.3-0.6-0.6-0.7
		l0.1,1.7c0.7,0.1,1.2,0.4,1.5,0.7c0.3,0.3,0.4,0.7,0.5,1.2c0,0.5-0.1,1-0.4,1.4c-0.3,0.4-0.7,0.6-1.3,0.8l0.1,0.8l-0.6,0l-0.1-0.8
		c-0.5,0-0.9-0.2-1.3-0.5c-0.3-0.3-0.6-0.7-0.7-1.3l1.2-0.2c0.1,0.2,0.2,0.4,0.3,0.6C15.3,14.3,15.5,14.4,15.6,14.5z M15.3,9.8
		c-0.2,0.1-0.3,0.2-0.4,0.3c-0.1,0.2-0.1,0.3-0.1,0.5c0,0.2,0.1,0.3,0.2,0.4c0.1,0.1,0.3,0.2,0.5,0.3L15.3,9.8z M16.3,14.5
		c0.2-0.1,0.4-0.2,0.5-0.3c0.1-0.2,0.2-0.4,0.2-0.6c0-0.2-0.1-0.4-0.2-0.5c-0.1-0.1-0.3-0.2-0.6-0.3L16.3,14.5z"/>
</g>
</svg>
