<svg xmlns="http://www.w3.org/2000/svg" viewBox="0 0 966 910.56">
  <defs>
    <style>.cls-1{fill:#273c8b;}</style>
  </defs>
  <title>free_product</title>
  <g id="Layer_2" data-name="Layer 2">
    <g id="Layer_1-2" data-name="Layer 1">
      <path class="cls-1"
            d="M956.51,549.21a73.87,73.87,0,0,0-100.65-28.12L640.48,642.39a11.68,11.68,0,0,0-5.61,7.39c-3.75,15.34-12.6,36.74-33.37,51.65-23,16.51-54.1,19.94-92,10.22l-.65-.18L384.59,672.89a14.27,14.27,0,1,1,8.47-27.25L516.66,684l.6.16c29.15,7.36,51.91,5.32,67.6-5.93,19.81-14.22,23.3-39.21,23.71-42.88,0-.11,0-.23,0-.35a.58.58,0,0,1,0-.1v-.19a65.35,65.35,0,0,0-47.32-67.68l-.54-.17c-.91-.29-92.35-30.16-150.6-46.78-6.48-1.84-24.31-6.14-50.1-6.14a226.12,226.12,0,0,0-141.51,49.36L4.33,736.6a11.66,11.66,0,0,0-2,16.12l116,153.22a11.69,11.69,0,0,0,16.43,2.2l149.4-115a14.43,14.43,0,0,1,12-2.58l241.31,57A74.5,74.5,0,0,0,590.72,840L928.38,649.86A74,74,0,0,0,956.51,549.21Z"/>
      <path class="cls-1"
            d="M721.2,72V23.63h50.66V0H624.61a45.27,45.27,0,0,0-45.27,45.27V72h30.08v39.72H586.07A45.4,45.4,0,0,0,540.8,157V520a45.4,45.4,0,0,0,45.27,45.27H717A45.41,45.41,0,0,0,762.24,520V157A45.41,45.41,0,0,0,717,111.75H693.62V72ZM700.89,309.08a18,18,0,0,1-4.69,12h3.94a18.19,18.19,0,0,1,18.14,18.14v12.21a18.19,18.19,0,0,1-18.14,18.14H598.33a18.19,18.19,0,0,1-18.14-18.14V339.25a18.19,18.19,0,0,1,18.14-18.14h3.93A18,18,0,0,1,615.72,291h5.72a12.36,12.36,0,0,1-.9-4.6c0-6.81,14.53-14,28.69-12.39s11.64-14.74,16.76-23.42c11.94,17.45,11.94,29,11.94,35.81A12.17,12.17,0,0,1,677,291h5.73A18.19,18.19,0,0,1,700.89,309.08Z"/>
    </g>
  </g>
</svg>