<?xml version="1.0" encoding="utf-8"?>
<!-- Generator: Adobe Illustrator 23.0.1, SVG Export Plug-In . SVG Version: 6.00 Build 0)  -->
<svg version="1.1" id="Capa_1" xmlns="http://www.w3.org/2000/svg" xmlns:xlink="http://www.w3.org/1999/xlink" x="0px" y="0px"
	 viewBox="0 0 50 50" style="enable-background:new 0 0 50 50;" xml:space="preserve">
<style type="text/css">
	.st0{fill:none;}
	.st1{fill:#F9B200;}
	.st2{fill:#FFFFFF;}
</style>
<title>Promoçōe</title>
<rect x="79.4" y="3.9" class="st0" width="50" height="50"/>
<path class="st1" d="M45.6,20.1c-0.4-1.7,1.6-4.3,0.9-5.8s-3.9-1.6-5-2.9s-0.3-4.5-1.6-5.6s-4.2,0.3-5.7-0.4S32,1.5,30.3,1.1
	S26.7,3.2,25,3.2s-3.7-2.5-5.3-2.2s-2.4,3.6-3.9,4.3s-4.4-0.7-5.7,0.4s-0.6,4.3-1.7,5.6s-4.2,1.4-5,2.9s1.2,4.1,0.9,5.8
	S1.1,23.2,1.1,25s2.9,3.2,3.2,4.9s-1.6,4.2-0.9,5.8s3.9,1.6,5,2.9s0.4,4.5,1.7,5.6s4.2-0.3,5.7,0.4s2.2,3.9,3.8,4.3s3.6-2.2,5.3-2.2
	s3.7,2.5,5.3,2.2s2.4-3.6,3.9-4.3s4.4,0.7,5.7-0.4s0.6-4.3,1.7-5.6s4.2-1.3,5-2.9s-1.2-4.1-0.9-5.8s3.2-3.1,3.2-4.9
	S46,21.8,45.6,20.1z"/>
<g>
	<path class="st2" d="M24.7,18.8c0,3-2.5,5.5-5.5,5.5c-3,0-5.5-2.5-5.5-5.5c0-3,2.5-5.5,5.5-5.5C22.3,13.3,24.7,15.7,24.7,18.8z
		 M16.7,18.8c0,1.4,1.1,2.6,2.5,2.6s2.5-1.2,2.5-2.6c0-1.4-1.1-2.6-2.5-2.6C17.8,16.2,16.7,17.4,16.7,18.8z M32.4,13.8L21.2,36.5
		h-3.5l11.2-22.7H32.4z M36.3,31.6c0,3-2.5,5.5-5.5,5.5c-3,0-5.5-2.5-5.5-5.5c0-3.1,2.5-5.5,5.5-5.5C33.9,26.1,36.3,28.5,36.3,31.6z
		 M28.3,31.6c0,1.4,1.1,2.6,2.5,2.6c1.4,0,2.5-1.2,2.5-2.6c0-1.4-1.1-2.6-2.5-2.6C29.5,29,28.3,30.2,28.3,31.6z"/>
</g>
</svg>
