<?xml version="1.0" encoding="utf-8"?>
<!-- Generator: Adobe Illustrator 23.0.1, SVG Export Plug-In . SVG Version: 6.00 Build 0)  -->
<svg version="1.1" id="Capa_1" xmlns="http://www.w3.org/2000/svg" xmlns:xlink="http://www.w3.org/1999/xlink" x="0px" y="0px"
	 viewBox="0 0 50 50" style="enable-background:new 0 0 50 50;" xml:space="preserve">
<style type="text/css">
	.st0{fill:#FF008F;}
	.st1{font-family:'Helvetica-BoldOblique';}
	.st2{font-size:5.919px;}
</style>
<title>Promoçōe</title>
<path class="st0" d="M30.1,11.8c-1.3,0.8-1.7,2.4-1.1,3.7c0.8,1.3,2.4,1.7,3.7,1.1c1.3-0.8,1.7-2.4,1.1-3.7
	C33.1,11.4,31.4,11,30.1,11.8z"/>
<path class="st0" d="M25.1,4.4C13.1,4.4,3.3,14,3.3,26s9.8,21.6,21.7,21.6S46.7,38,46.7,26S37,4.4,25.1,4.4z M25.2,44.1l-12.6-3.6
	c-1.7-0.5-2.7-2.3-2.2-3.9l4.8-16.9c0.5-1.7,2.2-3.8,3.7-4.6l-6.4,22c-0.1,0.5,0.1,1.1,0.8,1.3l15.4,4.5
	C28,43.8,26.6,44.5,25.2,44.1z M39.6,21.8l-4.8,16.9c-0.5,1.7-2.3,2.7-3.9,2.2l-12.6-3.6c-1.7-0.5-2.7-2.3-2.2-3.9l4.8-16.9
	c0.5-1.7,2.2-3.8,3.7-4.6L31,8.3c1.5-0.9,3.4-0.3,4.3,1.3l3.6,6.5C39.7,17.5,40.1,20.1,39.6,21.8z"/>
<text transform="matrix(1 0 0 1 18.5156 29.6142)" class="st0 st1 st2">%OFF</text>
</svg>
