<svg xmlns="http://www.w3.org/2000/svg" viewBox="0 0 967.67 925.6">
  <defs>
    <style>.cls-1{fill:#273c8b;}</style>
  </defs>
  <title>simple_volume_discount</title>
  <g id="Layer_2" data-name="Layer 2">
    <g id="Layer_1-2" data-name="Layer 1">
      <path class="cls-1"
            d="M563,511c-12.29,0-22.5,4.16-29.54,12-6.32,7.06-9.79,16.67-9.79,27.05,0,19.06,12.45,39.58,39.77,39.58,12.29,0,22.51-4.17,29.55-12,6.31-7.06,9.78-16.66,9.78-27C602.79,531.52,590.35,511,563,511Z"/>
      <path class="cls-1"
            d="M406.22,415.42c12.32,0,22.57-4.16,29.63-12a40.11,40.11,0,0,0,9.79-26.94c0-19-12.47-39.45-39.87-39.45-27.93,0-40.43,19.57-40.43,39C365.34,395,378.13,415.42,406.22,415.42Z"/>
      <path class="cls-1"
            d="M483.84,151.29C312.07,151.29,172.33,291,172.33,462.8S312.07,774.3,483.84,774.3,795.35,634.56,795.35,462.8,655.61,151.29,483.84,151.29ZM349,325.87c13.87-15.12,33.5-23.11,56.76-23.11,50,0,76.16,37.07,76.16,73.69,0,19.22-6.81,37.19-19.15,50.58-13.94,15.11-33.65,23.1-57,23.1C356,450.13,330,413.06,330,376.45,330,357.23,336.72,339.27,349,325.87Zm46.75,263.62A21.1,21.1,0,0,1,382,595.62H349.9c-4.53,0-5.76-2.76-2.73-6.12l226.69-252a21.71,21.71,0,0,1,13.75-6.27l31.81-.58c4.53-.09,5.77,2.61,2.74,6Zm223.18,10.69c-13.67,14.82-33,22.65-55.91,22.65-48.83,0-74.38-36.36-74.38-72.27,0-18.86,6.64-36.48,18.69-49.61C521,486.12,540.2,478.27,563,478.27c49,0,74.7,36.37,74.7,72.28C637.72,569.41,631.05,587,618.94,600.18Z"/>
      <path class="cls-1"
            d="M886.47,593.63c14.33-44.15,81.2-81.91,81.2-130.83S900.8,376.11,886.47,332c-14.86-45.76,16.53-115.51-11.18-153.6-28-38.46-104.22-30-142.69-58-38.08-27.71-53.46-103-99.22-117.82-44.14-14.34-100.62,37-149.54,37s-105.4-51.38-149.55-37c-45.76,14.85-61.13,90.11-99.21,117.82-38.47,28-114.7,19.56-142.69,58C64.67,216.46,96.06,286.21,81.21,332,66.87,376.11,0,413.87,0,462.8s66.87,86.68,81.21,130.83c14.85,45.76-16.54,115.51,11.18,153.59,28,38.47,104.22,30,142.69,58,38.08,27.72,53.45,103,99.21,117.83,44.15,14.34,100.62-37,149.55-37s105.4,51.38,149.55,37c45.75-14.86,61.12-90.12,99.21-117.83,38.46-28,114.69-19.55,142.69-58C903,709.13,871.61,639.38,886.47,593.63ZM483.84,821c-197.51,0-358.2-160.69-358.2-358.2s160.69-358.2,358.2-358.2S842,265.29,842,462.8,681.35,821,483.84,821Z"/>
    </g>
  </g>
</svg>